<?xml version="1.0" standalone="no"?>
<!DOCTYPE svg PUBLIC "-//W3C//DTD SVG 20010904//EN"
 "http://www.w3.org/TR/2001/REC-SVG-20010904/DTD/svg10.dtd">
<svg version="1.0" xmlns="http://www.w3.org/2000/svg"
 width="826.000000pt" height="826.000000pt" viewBox="0 0 826.000000 826.000000"
 preserveAspectRatio="xMidYMid meet">

<g transform="translate(0.000000,826.000000) scale(0.100000,-0.100000)"
fill="#000000" stroke="none">
<path d="M0 4130 l0 -4130 4130 0 4130 0 0 4130 0 4130 -4130 0 -4130 0 0
-4130z m2384 3756 c81 -34 118 -143 77 -223 -60 -118 -227 -120 -288 -3 -30
56 -29 103 3 158 42 71 131 100 208 68z m4739 -137 c58 -16 122 -85 142 -154
24 -80 5 -170 -33 -163 -14 3 -17 16 -17 79 0 66 -3 81 -27 115 -65 94 -177
108 -263 33 -18 -16 -38 -42 -45 -59 -9 -22 -19 -30 -38 -30 -23 0 -24 3 -19
34 11 66 71 123 160 152 42 14 69 12 140 -7z m-6139 -89 c179 -60 195 -70 161
-104 -13 -13 -29 -10 -145 29 -72 24 -130 40 -130 36 0 -14 -30 -226 -35 -248
-6 -26 -52 -33 -61 -9 -13 33 42 346 60 346 1 0 68 -22 150 -50z m2815 -15
c108 -20 202 -42 209 -49 24 -24 -5 -94 -63 -152 -58 -59 -117 -80 -195 -71
-84 10 -155 62 -191 142 -18 39 -25 118 -13 149 9 22 31 21 253 -19z m2359
-137 c5 -7 37 -65 72 -128 43 -79 59 -119 53 -129 -13 -20 -241 -143 -260
-139 -16 3 -143 232 -143 259 0 10 44 40 123 82 67 37 127 67 133 67 6 0 16
-6 22 -12z m-733 -423 c201 -155 227 -183 187 -204 -17 -9 -48 11 -217 142
-109 83 -202 159 -208 168 -13 22 -2 49 20 49 10 0 108 -70 218 -155z m2026
-108 c53 -35 79 -82 79 -139 0 -103 -67 -172 -165 -172 -170 0 -229 215 -86
311 25 17 48 23 86 23 38 0 61 -6 86 -23z m-3880 -152 c44 -29 69 -79 69 -140
0 -57 -19 -96 -67 -132 -31 -24 -46 -28 -99 -28 -70 0 -102 17 -141 75 -30 44
-32 129 -3 175 51 83 158 105 241 50z m1398 -39 c9 -11 5 -63 -14 -222 -15
-115 -31 -219 -36 -231 -5 -13 -17 -23 -29 -23 -24 0 -409 129 -428 143 -32
25 -3 50 233 197 132 82 245 149 251 150 6 0 17 -6 23 -14z m-3932 -345 c26
-5 81 -15 121 -21 76 -12 98 -29 71 -55 -12 -11 -28 -11 -94 1 -142 23 -131
30 -145 -91 -8 -60 -19 -110 -26 -116 -9 -7 -29 -8 -66 0 -29 5 -76 13 -105
16 -60 8 -53 20 -75 -130 -11 -79 -16 -90 -34 -93 -28 -4 -35 18 -25 76 5 26
12 79 16 119 10 106 9 106 135 84 58 -10 108 -15 111 -12 3 3 11 53 18 111 11
94 20 119 43 120 4 0 29 -4 55 -9z m1474 -77 c9 -11 10 -20 2 -32 -9 -15 -39
-17 -273 -17 -234 0 -264 2 -273 17 -8 12 -7 21 2 32 12 14 48 16 271 16 223
0 259 -2 271 -16z m-1173 -116 c4 -18 -11 -30 -316 -263 -218 -166 -237 -179
-252 -170 -27 16 -6 47 72 107 389 299 455 347 473 345 11 -1 21 -10 23 -19z
m4242 -198 c41 -11 94 -61 109 -103 41 -108 -42 -226 -158 -227 -62 0 -123 38
-150 93 -45 94 -12 184 84 228 46 21 66 23 115 9z m-2657 -316 c201 -72 217
-79 217 -98 0 -24 -140 -400 -155 -415 -12 -12 -44 -3 -222 61 -175 63 -209
78 -211 96 -4 23 119 372 144 410 11 16 21 21 32 17 9 -4 97 -36 195 -71z
m3587 -139 c6 -8 9 -19 5 -25 -8 -13 -4 -11 -359 -150 -273 -106 -290 -112
-303 -94 -11 14 -11 21 -1 30 7 7 141 63 298 124 157 61 294 115 305 120 29
13 41 12 55 -5z m-4817 -139 c49 -20 95 -78 102 -130 9 -60 -8 -107 -55 -150
-71 -64 -158 -61 -226 8 -67 67 -72 154 -11 223 53 60 122 78 190 49z m4881
-22 c7 -18 -93 -254 -110 -261 -7 -2 -56 17 -109 42 -76 36 -100 43 -106 33
-5 -7 -26 -53 -46 -102 -21 -49 -44 -91 -51 -93 -7 -3 -27 2 -45 10 -17 8 -71
33 -119 55 -70 32 -88 45 -88 62 0 35 23 33 125 -15 75 -35 100 -42 107 -33 4
7 25 53 45 102 21 49 44 91 51 93 7 3 27 -2 45 -10 17 -9 61 -29 97 -46 l65
-30 22 47 c12 26 34 73 49 105 26 58 55 75 68 41z m-1114 -379 c8 -10 9 -19 3
-27 -181 -236 -318 -408 -324 -408 -21 0 -39 14 -39 32 0 28 307 418 330 418
9 0 23 -7 30 -15z m1941 -61 c208 -74 219 -79 219 -99 0 -26 -139 -399 -155
-414 -12 -13 -39 -5 -222 61 -166 60 -209 79 -211 94 -3 18 115 361 139 406 5
10 18 18 28 18 11 0 101 -30 202 -66z m-2801 21 c10 -12 9 -44 -5 -157 -20
-162 -27 -188 -52 -188 -9 0 -82 21 -161 48 -152 50 -180 69 -148 100 15 15
27 13 143 -26 70 -23 129 -40 131 -38 2 2 10 55 18 118 8 62 19 123 24 136 11
25 32 29 50 7z m-3838 -100 c64 -26 122 -53 128 -60 16 -20 -90 -279 -116
-283 -26 -4 -256 91 -268 111 -7 11 3 48 38 139 47 118 69 153 91 144 5 -2 63
-25 127 -51z m1824 -247 c43 -41 64 -53 97 -57 37 -5 42 -9 42 -31 0 -21 -5
-26 -34 -28 -47 -5 -81 12 -132 64 -24 24 -51 44 -61 44 -22 0 -42 -31 -57
-90 -20 -75 -61 -110 -127 -110 -43 0 -93 29 -143 84 -14 14 -33 26 -43 26
-19 0 -24 -10 -63 -113 -21 -59 -61 -87 -123 -87 -37 0 -49 6 -102 55 -33 30
-66 55 -74 55 -21 0 -35 -22 -52 -81 -10 -33 -29 -66 -50 -87 -33 -33 -37 -34
-90 -30 -50 4 -59 9 -107 56 -77 76 -85 72 -132 -60 -18 -51 -58 -88 -94 -88
-33 0 -39 30 -10 52 13 10 29 22 36 28 6 5 19 35 28 66 38 130 126 149 208 46
29 -35 72 -54 99 -43 32 12 43 28 58 86 18 69 44 103 84 111 42 7 78 -10 131
-65 67 -70 122 -53 152 48 26 92 84 131 146 100 12 -6 43 -32 69 -56 67 -66
127 -57 144 21 13 61 37 107 63 121 49 27 78 19 137 -37z m919 -77 c46 -21
100 -72 121 -113 23 -44 29 -121 13 -175 -17 -62 -96 -143 -155 -161 -88 -26
-173 -6 -238 56 -122 117 -94 311 56 386 64 32 143 35 203 7z m2670 -342 c106
-73 98 -232 -15 -289 -98 -50 -211 2 -240 110 -39 144 132 263 255 179z m1468
-422 c64 -117 68 -129 54 -145 -9 -9 -68 -44 -131 -77 -88 -46 -119 -58 -131
-50 -24 15 -145 248 -137 262 11 18 244 143 261 140 8 -1 46 -60 84 -130z
m-5265 4 c8 -4 12 -19 10 -32 l-3 -24 -270 0 c-252 0 -270 1 -273 18 -9 45 6
47 272 47 138 0 257 -4 264 -9z m-1458 -256 c62 -42 103 -112 108 -183 7 -101
12 -100 -242 -55 -162 28 -222 42 -229 54 -14 22 16 100 54 144 50 56 102 77
189 73 64 -3 82 -8 120 -33z m2396 -3 c16 -11 134 -233 134 -253 0 -12 -37
-38 -119 -83 -66 -36 -126 -66 -134 -66 -20 0 -25 8 -96 138 -45 83 -59 118
-52 129 7 14 235 143 251 143 3 0 10 -4 16 -8z m1183 -114 c42 -13 118 -87
127 -123 4 -17 2 -32 -7 -40 -23 -23 -398 -187 -410 -179 -19 11 -39 72 -39
117 0 171 157 279 329 225z m1299 -455 c6 -40 -22 -44 -284 -41 -214 3 -248 5
-257 19 -6 9 -7 24 -4 33 6 15 33 16 274 14 267 -3 268 -3 271 -25z m1783
-159 c62 -32 96 -111 78 -179 -23 -81 -78 -125 -157 -125 -52 0 -83 12 -117
45 -33 34 -45 65 -45 116 0 128 126 203 241 143z m-2817 -354 c48 -74 61 -88
75 -80 9 6 51 35 94 65 43 30 83 52 90 49 7 -2 46 -54 87 -115 61 -89 72 -113
64 -127 -22 -35 -41 -24 -99 60 -32 46 -61 87 -65 92 -5 4 -49 -20 -98 -54
-56 -39 -96 -61 -106 -57 -8 3 -41 44 -72 91 -33 50 -61 83 -68 79 -6 -3 -46
-30 -88 -60 -43 -29 -84 -53 -91 -53 -20 0 -39 25 -32 41 9 21 207 158 230
158 14 1 37 -25 79 -89z m-3815 18 c4 -13 13 -88 20 -167 10 -128 10 -146 -4
-160 -12 -12 -19 -13 -33 -5 -13 9 -20 37 -29 139 -7 71 -14 131 -15 135 -2 4
-52 -8 -113 -26 -123 -37 -160 -41 -169 -19 -12 31 9 44 142 83 164 48 189 50
201 20z m2417 -20 c69 -47 90 -134 52 -208 -58 -112 -204 -120 -282 -16 -31
41 -29 139 3 185 50 70 155 88 227 39z m2717 -119 c67 -28 127 -58 134 -66 9
-11 1 -40 -39 -136 -54 -132 -63 -147 -85 -147 -23 0 -236 91 -256 109 -17 16
-15 23 35 142 59 138 65 149 79 149 5 0 64 -23 132 -51z m-4223 -289 c117 -90
200 -161 200 -171 0 -24 -26 -42 -45 -32 -9 5 -104 77 -210 159 -145 111 -194
154 -195 171 0 21 14 33 37 30 7 -1 103 -72 213 -157z m5588 -13 c5 -24 -188
-485 -206 -492 -18 -7 -42 12 -42 33 0 18 177 451 193 470 14 18 51 11 55 -11z
m-3221 -324 c187 -99 204 -110 201 -132 -3 -22 -29 -36 -258 -132 -140 -60
-262 -108 -271 -109 -42 -1 -39 22 27 245 56 191 73 234 93 235 3 0 96 -48
208 -107z m-2731 -123 c35 -63 63 -124 64 -136 0 -17 -26 -35 -126 -88 -69
-37 -131 -65 -138 -63 -7 3 -44 61 -81 128 -49 90 -64 128 -58 139 14 22 235
141 257 138 13 -2 39 -39 82 -118z m1138 94 c24 -9 20 -39 -23 -167 -22 -64
-36 -117 -31 -117 19 0 236 -31 253 -36 20 -6 23 -52 4 -60 -26 -9 -319 33
-334 49 -14 13 -9 33 36 170 29 86 58 158 64 161 7 2 13 5 14 5 1 1 8 -2 17
-5z m5007 -605 c48 -24 103 -89 117 -138 38 -125 -30 -265 -147 -300 -172 -51
-338 80 -318 251 20 165 200 262 348 187z m-2848 -68 c219 -79 237 -87 237
-105 0 -17 -123 -364 -140 -396 -6 -11 -16 -20 -23 -20 -11 0 -135 43 -365
128 -24 8 -46 21 -49 28 -2 7 23 90 57 186 81 226 86 238 104 238 8 0 89 -27
179 -59z m-3863 -103 c52 -34 139 -90 193 -125 54 -35 97 -70 97 -78 0 -21
-20 -28 -307 -120 -289 -93 -286 -93 -243 23 91 246 142 362 158 362 3 0 49
-28 102 -62z m2347 -99 c54 -26 93 -88 93 -148 0 -149 -172 -225 -279 -123
-75 72 -75 172 0 244 55 52 116 61 186 27z m2944 -39 c7 -66 18 -89 59 -124
73 -61 172 -55 235 15 19 21 37 51 41 66 3 16 7 34 10 41 6 21 35 26 52 8 14
-14 15 -22 4 -63 -43 -158 -228 -227 -365 -137 -71 46 -121 158 -103 230 5 20
12 25 34 22 25 -3 27 -7 33 -58z"/>
<path d="M2258 7823 c-58 -36 -65 -108 -14 -159 89 -89 219 14 161 127 -26 49
-95 64 -147 32z"/>
<path d="M3610 7590 c0 -110 143 -185 249 -131 35 19 87 78 77 88 -2 2 -66 15
-142 28 -77 14 -149 27 -161 30 -18 4 -23 1 -23 -15z"/>
<path d="M6040 7398 c-41 -22 -77 -42 -79 -44 -5 -4 82 -165 89 -162 57 29
138 72 147 80 8 6 0 29 -29 81 -21 40 -42 75 -46 79 -4 4 -41 -11 -82 -34z"/>
<path d="M7303 6912 c-54 -42 -49 -127 11 -163 38 -23 58 -24 97 -3 42 21 64
75 49 120 -6 19 -21 41 -33 49 -29 20 -97 19 -124 -3z"/>
<path d="M3411 6764 c-38 -32 -49 -80 -27 -122 20 -39 44 -52 93 -52 68 0 114
63 93 126 -24 72 -102 96 -159 48z"/>
<path d="M4738 6597 c-81 -51 -152 -97 -158 -103 -6 -6 37 -26 131 -58 77 -27
142 -46 145 -43 4 4 43 258 44 290 0 14 -15 5 -162 -86z"/>
<path d="M5481 5976 c-57 -32 -68 -111 -22 -157 63 -63 171 -20 171 68 -1 78
-81 127 -149 89z"/>
<path d="M2705 5627 c-54 -144 -78 -218 -74 -222 6 -6 312 -115 315 -113 9 10
112 313 108 317 -3 3 -75 31 -159 62 l-154 56 -36 -100z"/>
<path d="M1559 5371 c-64 -65 -20 -171 71 -171 33 0 48 6 71 29 64 65 20 171
-71 171 -33 0 -48 -6 -71 -29z"/>
<path d="M7164 4828 c-31 -87 -55 -160 -53 -162 7 -7 312 -116 315 -113 11 10
114 311 109 316 -4 3 -76 31 -160 62 l-154 56 -57 -159z"/>
<path d="M610 4800 c-18 -45 -31 -82 -29 -85 9 -8 162 -66 166 -62 2 2 19 41
37 85 l34 81 -77 30 c-42 17 -81 31 -87 31 -7 0 -26 -36 -44 -80z"/>
<path d="M3332 4524 c-18 -10 -45 -33 -60 -52 -23 -30 -27 -45 -27 -101 0 -53
5 -72 23 -99 72 -100 229 -92 289 13 43 75 21 177 -49 226 -42 30 -130 37
-176 13z"/>
<path d="M6014 4176 c-36 -36 -43 -70 -23 -109 49 -96 189 -64 189 43 0 33 -6
48 -29 71 -42 42 -92 40 -137 -5z"/>
<path d="M7467 3841 c-38 -21 -73 -43 -79 -49 -6 -6 4 -34 32 -86 23 -42 44
-76 46 -76 11 0 154 82 154 88 0 8 -80 162 -83 161 -1 0 -33 -18 -70 -38z"/>
<path d="M737 3535 c-22 -7 -50 -24 -64 -37 -26 -24 -47 -57 -41 -63 7 -8 320
-56 325 -51 4 3 1 23 -6 45 -14 47 -66 96 -118 110 -47 13 -49 13 -96 -4z"/>
<path d="M3270 3491 c-8 -4 -45 -24 -82 -44 l-66 -37 39 -73 c22 -39 44 -75
48 -80 6 -6 141 60 159 77 3 4 -57 127 -75 153 -5 6 -15 8 -23 4z"/>
<path d="M4350 3394 c-42 -18 -77 -49 -96 -86 -15 -28 -19 -108 -6 -108 4 0
74 30 156 67 l148 67 -30 27 c-29 26 -88 49 -122 49 -8 -1 -31 -8 -50 -16z"/>
<path d="M7470 2802 c-35 -16 -61 -41 -71 -69 -22 -66 49 -151 116 -137 38 8
82 49 90 84 17 75 -68 152 -135 122z"/>
<path d="M3224 2444 c-62 -30 -74 -117 -23 -165 70 -65 179 -17 179 79 0 25
-9 43 -34 68 -38 38 -72 43 -122 18z"/>
<path d="M5942 2261 c-17 -42 -32 -81 -32 -86 0 -10 158 -81 164 -74 7 7 66
151 66 160 0 8 -25 20 -120 59 l-45 18 -33 -77z"/>
<path d="M4032 1728 c-6 -18 -25 -80 -42 -138 -17 -58 -33 -110 -35 -117 -2
-6 40 7 93 29 53 23 137 58 186 78 l88 37 -133 69 c-73 38 -136 70 -140 72 -4
2 -12 -12 -17 -30z"/>
<path d="M1315 1620 c-38 -22 -71 -44 -73 -49 -2 -5 15 -43 38 -85 l41 -75 77
41 c42 23 79 43 80 44 6 4 -80 164 -87 163 -3 0 -37 -18 -76 -39z"/>
<path d="M7465 1056 c-152 -70 -134 -283 28 -327 71 -19 156 22 192 92 20 37
19 113 -2 156 -33 71 -147 112 -218 79z"/>
<path d="M4575 870 c-32 -89 -55 -163 -53 -165 5 -5 142 -56 261 -97 32 -11
61 -18 63 -15 3 3 30 72 60 153 49 133 61 174 51 174 -2 0 -71 25 -153 55 -82
30 -154 55 -160 55 -7 0 -38 -72 -69 -160z"/>
<path d="M786 775 c-32 -80 -56 -148 -53 -151 2 -3 83 20 178 51 96 31 180 58
187 60 6 3 12 8 12 12 -1 6 -235 160 -260 171 -3 1 -32 -63 -64 -143z"/>
<path d="M3151 776 c-91 -51 -50 -186 57 -186 37 0 71 26 88 66 36 85 -62 166
-145 120z"/>
</g>
</svg>
